# xmcd
#
# Track frame offsets:
#	150
#	17087
#	26937
#	41865
#	51939
#	66100
#	91520
#	104092
#	127238
#
# Disc length: 1940 seconds
#
# Revision: 1
# Processed by: cddbd v1.5.2PL0 Copyright (c) Steve Scherf et al.
# Submitted via: audiograbber 1.83.01
#
DISCID=80079209
DTITLE=Gaznevada - Mamma dammi la benza
DYEAR=1979
DGENRE=Rock
TTITLE0=Everybody enjoy with reggae music
TTITLE1=Criminale
TTITLE2=Donna di gomma
TTITLE3=Bestiola
TTITLE4=Mamma dammi la benza
TTITLE5=Teleporno T.V.
TTITLE6=Johnny (fallo per me)
TTITLE7=Roipnol
TTITLE8=Nevadagaz
EXTD=
EXTT0=
EXTT1=
EXTT2=
EXTT3=
EXTT4=
EXTT5=
EXTT6=
EXTT7=
EXTT8=
PLAYORDER=
